<svg id="Layer_1" data-name="Layer 1" xmlns="http://www.w3.org/2000/svg" viewBox="0 0 115.21 95.54"><defs><style>.cls-1{fill:#fff;}</style></defs><path class="cls-1" d="M99.68,113.31,94,107.65,145.5,56.17a60.5,60.5,0,0,1-24-1C93.58,48.25,83,53.53,82.92,53.58L79,46.6c1.27-.73,13.33-6.91,44.44.82a53.66,53.66,0,0,0,34.2-3.12L180.2,32.78Z" transform="translate(-79 -32.78)"/><path class="cls-1" d="M173.54,47.79l5.66,5.65-51.48,51.48a60.64,60.64,0,0,1,24,1c27.94,6.94,38.5,1.66,38.6,1.6l3.92,7c-1.28.73-13.33,6.91-44.45-.81a53.64,53.64,0,0,0-34.19,3.11L93,128.32Z" transform="translate(-79 -32.78)"/></svg>