<svg width="1136" height="893" viewBox="0 0 1136 893" fill="none" xmlns="http://www.w3.org/2000/svg">
<g opacity="0.25">
<path d="M979.685 134.638L1032.89 197.287L463.187 681.536C532.101 676.401 617.14 681.022 707.93 711.628C988.107 805.808 1100.57 760.515 1101.7 760.104L1136 834.77C1122.34 841.24 993.858 894.441 681.741 789.58C494.203 726.52 330.699 792.353 329.056 793.072L88.5232 892.284L979.685 134.638Z" fill="url(#paint0_linear_146_47)"/>
<path d="M167.195 768.526L113.994 705.876L683.795 221.627C614.881 226.763 529.842 222.141 439.052 191.535C158.876 97.3556 46.4149 142.648 45.2852 143.162L10.9821 68.4959C24.6417 62.0255 153.124 8.82491 465.241 113.686C652.779 176.746 816.283 110.913 817.927 110.194L1058.46 10.9817L167.195 768.526Z" fill="url(#paint1_linear_146_47)"/>
<path d="M968.703 123.656L1021.9 186.306L452.205 670.554C521.119 665.419 606.158 670.041 696.948 700.647C977.124 794.826 1089.59 749.534 1090.71 749.123L1125.02 823.789C1111.36 830.259 982.876 883.459 670.759 778.599C483.221 715.539 319.717 781.372 318.074 782.091L77.5411 881.303L968.703 123.656Z" fill="#1D2228"/>
<path d="M156.213 757.544L103.012 694.894L672.813 210.646C603.899 215.781 518.86 211.159 428.07 180.553C147.894 86.374 35.4328 131.666 34.3031 132.18L0 57.5142C13.6596 51.0438 142.142 -2.15678 454.259 102.704C641.797 165.764 805.301 99.9309 806.944 99.2119L1047.48 0L156.213 757.544Z" fill="#1D2228"/>
</g>
<defs>
<linearGradient id="paint0_linear_146_47" x1="907.804" y1="133.458" x2="362.352" y2="921.116" gradientUnits="userSpaceOnUse">
<stop stop-color="#D90068"/>
<stop offset="0.494792" stop-color="#201D9D"/>
<stop offset="1" stop-color="#14C6A6"/>
</linearGradient>
<linearGradient id="paint1_linear_146_47" x1="830.262" y1="9.80173" x2="284.911" y2="797.423" gradientUnits="userSpaceOnUse">
<stop stop-color="#D90068"/>
<stop offset="0.494792" stop-color="#201D9D"/>
<stop offset="1" stop-color="#14C6A6"/>
</linearGradient>
</defs>
</svg>
