<svg width="414" height="325" viewBox="0 0 414 325" fill="none" xmlns="http://www.w3.org/2000/svg">
<path d="M356.834 49.0397L376.212 71.8587L168.708 248.239C193.809 246.368 224.783 248.052 257.852 259.199C359.902 293.503 400.864 277.005 401.275 276.856L413.77 304.052C408.794 306.408 361.997 325.786 248.313 287.592C180.006 264.623 120.452 288.602 119.853 288.864L32.2432 325L356.834 49.0397Z" fill="url(#paint0_linear_146_47)"/>
<path d="M60.8979 279.923L41.5205 257.104L249.061 80.7243C223.96 82.5947 192.986 80.9113 159.918 69.7637C57.8679 35.4603 16.9058 51.9574 16.4944 52.1444L4 24.9486C8.9753 22.5919 55.773 3.21443 169.457 41.4082C237.764 64.3769 297.318 40.3982 297.917 40.1364L385.527 4L60.8979 279.923Z" fill="url(#paint1_linear_146_47)"/>
<path d="M352.834 45.0397L372.212 67.8587L164.708 244.239C189.809 242.368 220.783 244.052 253.852 255.199C355.902 289.503 396.864 273.005 397.275 272.856L409.77 300.052C404.794 302.408 357.997 321.786 244.313 283.592C176.006 260.623 116.452 284.602 115.853 284.864L28.2432 321L352.834 45.0397Z" fill="#1D2228"/>
<path d="M56.8979 275.923L37.5205 253.104L245.061 76.7243C219.96 78.5947 188.986 76.9113 155.918 65.7637C53.8679 31.4603 12.9058 47.9574 12.4944 48.1444L0 20.9486C4.9753 18.5919 51.773 -0.785573 165.457 37.4082C233.764 60.3769 293.318 36.3982 293.917 36.1364L381.527 0L56.8979 275.923Z" fill="#1D2228"/>
<defs>
<linearGradient id="paint0_linear_146_47" x1="330.653" y1="48.6098" x2="131.981" y2="335.502" gradientUnits="userSpaceOnUse">
<stop stop-color="#640287"/>
<stop offset="1" stop-color="#14A289"/>
</linearGradient>
<linearGradient id="paint1_linear_146_47" x1="302.41" y1="3.57022" x2="103.774" y2="290.449" gradientUnits="userSpaceOnUse">
<stop stop-color="#640287"/>
<stop offset="1" stop-color="#14A289"/>
</linearGradient>
</defs>
</svg>
