<?xml version="1.0" encoding="UTF-8"?><svg id="a" xmlns="http://www.w3.org/2000/svg" xmlns:xlink="http://www.w3.org/1999/xlink" viewBox="0 0 110.31 87.26"><defs><style>.d{fill:url(#c);}.e{fill:url(#b);}.f{fill:#fff;}</style><linearGradient id="b" x1="30.64" y1="111.2" x2="113.85" y2="33.61" gradientTransform="matrix(1, 0, 0, 1, 0, 0)" gradientUnits="userSpaceOnUse"><stop offset="0" stop-color="#38bba1"/><stop offset="1" stop-color="#753a89"/></linearGradient><linearGradient id="c" x1="-3.96" y1="56.23" x2="74.28" y2="-16.72" gradientTransform="matrix(1, 0, 0, 1, 0, 0)" gradientUnits="userSpaceOnUse"><stop offset="0" stop-color="#38bba1"/><stop offset="1" stop-color="#753a89"/></linearGradient></defs><g><path class="e" d="M95.1,13.51l5.18,6.1-55.47,47.15c6.71-.5,14.99-.05,23.83,2.93,27.28,9.17,38.23,4.76,38.34,4.72l3.34,7.27c-1.33,.63-13.84,5.81-44.23-4.4-18.26-6.14-34.18,.27-34.34,.34l-23.42,9.66L95.1,13.51Z"/><path class="d" d="M15.98,75.23l-5.18-6.1L66.28,21.98c-6.71,.5-14.99,.05-23.83-2.93C15.17,9.88,4.22,14.29,4.11,14.34L.77,7.07c1.33-.63,13.84-5.81,44.23,4.4,18.26,6.14,34.18-.27,34.34-.34L102.76,1.47,15.98,75.23Z"/></g><g><path class="f" d="M94.32,12.04l5.18,6.1-55.47,47.15c6.71-.5,14.99-.05,23.83,2.93,27.28,9.17,38.23,4.76,38.34,4.72l3.34,7.27c-1.33,.63-13.84,5.81-44.23-4.4-18.26-6.14-34.18,.27-34.34,.34l-23.42,9.66L94.32,12.04Z"/><path class="f" d="M15.21,73.76l-5.18-6.1L65.51,20.51c-6.71,.5-14.99,.05-23.83-2.93C14.4,8.41,3.45,12.82,3.34,12.87L0,5.6C1.33,4.97,13.84-.21,44.23,10c18.26,6.14,34.18-.27,34.34-.34L101.99,0,15.21,73.76Z"/></g></svg>