<svg id="Layer_1" data-name="Layer 1" xmlns="http://www.w3.org/2000/svg" viewBox="0 0 109.54 85.79"><defs><style>.cls-1{fill:#e44d65;}</style></defs><path class="cls-1" d="M94.32,12l5.19,6.09L44,65.28a60.39,60.39,0,0,1,23.83,2.93c27.28,9.17,38.23,4.76,38.34,4.71l3.34,7.27c-1.33.63-13.85,5.82-44.23-4.4A53.61,53.61,0,0,0,31,76.13L7.55,85.79Z"/><path class="cls-1" d="M15.21,73.76,10,67.66,65.51,20.51a60.55,60.55,0,0,1-23.83-2.92C14.4,8.41,3.45,12.82,3.34,12.87L0,5.6C1.33,5,13.84-.21,44.23,10a53.62,53.62,0,0,0,34.34-.34L102,0Z"/></svg>