<?xml version="1.0" encoding="UTF-8"?><svg id="a" xmlns="http://www.w3.org/2000/svg" viewBox="0 0 109.54 85.79"><defs><style>.b{fill:#2e9e8d;}</style></defs><path class="b" d="M94.32,12.04l5.18,6.1-55.47,47.15c6.71-.5,14.99-.05,23.83,2.93,27.28,9.17,38.23,4.76,38.34,4.72l3.34,7.27c-1.33,.63-13.84,5.81-44.23-4.4-18.26-6.14-34.18,.27-34.34,.34l-23.42,9.66L94.32,12.04Z"/><path class="b" d="M15.21,73.76l-5.18-6.1L65.51,20.51c-6.71,.5-14.99,.05-23.83-2.93C14.4,8.41,3.45,12.82,3.34,12.87L0,5.6C1.33,4.97,13.84-.21,44.23,10c18.26,6.14,34.18-.27,34.34-.34L101.99,0,15.21,73.76Z"/></svg>